<?xml version="1.0" encoding="utf-8"?>
<!-- Generator: Adobe Illustrator 16.0.0, SVG Export Plug-In . SVG Version: 6.00 Build 0)  -->
<!DOCTYPE svg PUBLIC "-//W3C//DTD SVG 1.1//EN" "http://www.w3.org/Graphics/SVG/1.1/DTD/svg11.dtd">
<svg version="1.1" id="Layer_1" xmlns="http://www.w3.org/2000/svg" xmlns:xlink="http://www.w3.org/1999/xlink" x="0px" y="0px"
	 width="306px" height="75.884px" viewBox="0 0 306 75.884" enable-background="new 0 0 306 75.884" xml:space="preserve">
<path fill="#F0582A" d="M10.931,42.558H0V0h10.931V42.558z"/>
<path fill="#F0582A" d="M27.043,42.558H16.554V0h9.396l16.728,27.498L42.212,0h10.491v42.558h-9.514L26.585,17.411L27.043,42.558z"
	/>
<path fill="#F0582A" d="M69.695,42.558H59.216V0h9.384l16.729,27.498L84.876,0h10.49v42.558h-9.519L69.241,17.411L69.695,42.558z"/>
<path fill="#F0582A" d="M122.469,43.388c-6.354,0-11.689-1.418-16.003-5.657c-4.337-4.227-6.503-9.438-6.503-15.655
	c0-6.293,2.152-11.564,6.465-15.823c4.306-4.238,9.656-6.369,16.042-6.369c6.396,0,11.786,2.14,16.184,6.4
	c4.395,4.277,6.592,9.519,6.592,15.734c0,6.208-2.198,11.443-6.592,15.684C134.255,41.955,128.865,43.388,122.469,43.388
	 M122.605,9.515c-3.356,0-6.142,1.183-8.369,3.552c-2.229,2.378-3.341,5.311-3.341,8.823c0,3.59,1.122,6.593,3.381,8.962
	c2.254,2.405,5.066,3.59,8.458,3.59c3.252,0,5.997-1.185,8.237-3.59c2.229-2.37,3.337-5.31,3.337-8.776
	c0-3.553-1.122-6.53-3.376-8.938C128.68,10.716,125.907,9.515,122.605,9.515"/>
<path fill="#F0582A" d="M171.363,34.442c4.591,0,8.037-2.35,10.348-7.071h11.451c-1.196,5.02-3.81,9.057-7.818,12.121
	c-4.012,3.053-8.629,3.896-13.856,3.896c-6.307,0-11.645-1.458-16.007-5.753c-4.38-4.288-6.57-9.541-6.57-15.745
	c0-6.164,2.169-11.378,6.497-15.637c4.332-4.238,9.654-6.369,15.957-6.369c8.319,0,14.667,3.424,19.033,10.269
	c1.501,2.336,2.428,4.59,2.766,6.756h-11.451c-0.848-2.27-2.213-4.071-4.085-5.402c-1.86-1.324-3.979-1.992-6.328-1.992
	c-3.258,0-5.991,1.183-8.18,3.552c-2.188,2.378-3.276,5.311-3.276,8.823c0,3.55,1.101,6.54,3.316,8.931
	C165.374,33.241,168.1,34.442,171.363,34.442"/>
<path fill="#F0582A" d="M221.028,42.558h-23.792V0h23.792v10.106h-13.314v6.518h12.937v9.74h-12.937v6.91h13.314V42.558z"/>
<path fill="#F0582A" d="M254.535,42.558l-2.061-5.489h-14.907l-2.254,5.489h-11.772L240.716,0h8.688l17.033,42.558H254.535z
	 M245.086,13.913l-4.501,14.544h8.938L245.086,13.913z"/>
<path fill="#F0582A" d="M280.334,42.558h-10.49V0h9.396l16.728,27.498L295.515,0H306v42.558h-9.513l-16.593-25.147L280.334,42.558z"
	/>
<path fill="#999B9E" d="M63.571,54.431h2.275l5.418,18.247h0.054l5.288-18.247h2.058l5.287,18.225h0.066l5.421-18.225h2.241
	L85.338,75.5h-2.809l-4.881-17.122h-0.067L72.735,75.5H69.88L63.571,54.431z"/>
<path fill="#999B9E" d="M94.435,65.533c0-5.467,4.485-9.501,9.484-9.501c5.242,0,9.522,4.268,9.522,9.414
	c0,5.223-4.407,8.453-9.522,8.453C98.769,73.897,94.435,70.552,94.435,65.533z M92.207,65.533c0,6.164,5.42,10.351,11.712,10.351
	c6.197,0,11.736-4,11.736-10.47c0-6.46-5.499-11.373-11.736-11.373C98.025,54.042,92.207,58.621,92.207,65.533z"/>
<path fill="#999B9E" d="M118.511,54.431h5.625c2.96,0,4.429,0.351,5.447,0.823c2.485,1.168,3.946,3.568,3.946,6.274
	c0,3.172-2.3,6.41-6.585,6.672l6.265,7.299h-2.783l-7.525-9.047c2.814,0,3.78-0.032,4.768-0.327
	c2.427-0.681,3.652-2.702,3.652-4.655c0-1.726-0.988-3.504-2.432-4.216c-1.311-0.689-2.445-0.832-4.307-0.832h-3.862V75.5h-2.209
	V54.431z"/>
<path fill="#999B9E" d="M137.04,54.431h2.215v19.082h9.158V75.5H137.04V54.431z"/>
<path fill="#999B9E" d="M152.846,56.423h3.203c3.259,0,5.331,0.412,7.308,1.683c2.301,1.664,3.773,4.37,3.773,7.275
	c0,3.835-2.125,5.222-3.469,6.34c-2.554,1.792-5.608,1.792-7.612,1.792h-3.203V56.423z M150.63,75.5h6.463
	c2.728,0,5.418-0.648,7.218-1.804c4.228-2.674,5.031-6.176,5.031-8.224c0-2.645-1.134-6.83-5.031-9.23
	c-1.799-1.16-4.49-1.811-7.218-1.811h-6.463V75.5z"/>
<path fill="#999B9E" d="M170.755,54.431h2.267l5.422,18.247h0.067l5.259-18.247h2.069l5.303,18.225h0.053l5.426-18.225h2.242
	L192.518,75.5h-2.812l-4.879-17.122h-0.068L179.921,75.5h-2.847L170.755,54.431z"/>
<path fill="#999B9E" d="M201.443,54.431h2.214V75.5h-2.214V54.431z"/>
<path fill="#999B9E" d="M210.358,56.423h3.205c3.262,0,5.327,0.412,7.318,1.683c2.295,1.664,3.764,4.37,3.764,7.275
	c0,3.835-2.13,5.222-3.479,6.34c-2.54,1.792-5.593,1.792-7.604,1.792h-3.205V56.423z M208.142,75.5h6.474
	c2.724,0,5.415-0.648,7.208-1.804c4.227-2.674,5.031-6.176,5.031-8.224c0-2.645-1.133-6.83-5.031-9.23
	c-1.793-1.16-4.484-1.811-7.208-1.811h-6.474V75.5z"/>
<path fill="#999B9E" d="M230.31,54.431h12.12v1.992h-9.911v7.889h9.579v1.991h-9.579v7.21h9.911V75.5h-12.12V54.431z"/>
</svg>
